<svg width="280" height="365" viewBox="0 0 280 365" fill="none" xmlns="http://www.w3.org/2000/svg">
<path fill-rule="evenodd" clip-rule="evenodd" d="M153.408 259.516C107.571 259.516 90.9001 204.64 64.8584 174.525C46.2262 152.978 14.4267 159.403 5.01398 129.238C-18.655 53.386 44.6949 -0.000244141 127.339 -0.000244141C209.983 -0.000244141 265.706 46.8211 277.738 117.206C289.77 187.591 236.052 259.516 153.408 259.516Z" fill="#191847"/>
<path fill-rule="evenodd" clip-rule="evenodd" d="M148.346 210.519C166.827 188.827 179.335 162.242 177.245 132.453C171.222 46.6235 51.7442 65.505 28.5033 108.825C5.2623 152.144 8.02394 262.028 38.0608 269.77C50.0395 272.858 75.5576 265.294 101.529 249.64L85.2273 364.969H181.483L148.346 210.519Z" fill="#B28B67"/>
<path fill-rule="evenodd" clip-rule="evenodd" d="M107.767 155.305C111.265 153.455 115.272 152.404 119.531 152.404C133.168 152.404 144.223 163.178 144.223 176.468C144.223 181.893 142.382 186.898 139.274 190.922C145.125 200.566 149.118 210.698 150.427 221.114C170.705 221.114 244.716 144.383 170.987 72.1913C97.2586 -0.000395276 -9.28841 103.057 22.728 109.067C41.1358 112.523 78.2086 130.097 107.767 155.305V155.305Z" fill="#191847"/>
</svg>
