<svg width="179" height="306" viewBox="0 0 179 306" fill="none" xmlns="http://www.w3.org/2000/svg">
<path fill-rule="evenodd" clip-rule="evenodd" d="M41.7487 148.88C23.0028 126.812 10.3153 99.7676 12.4354 69.4638C18.544 -17.8502 139.736 1.35778 163.31 45.4264C186.885 89.4949 184.083 201.279 153.616 209.155C141.465 212.296 115.581 204.602 89.2369 188.677L105.773 306H8.13623L41.7487 148.88Z" fill="#B28B67"/>
<path fill-rule="evenodd" clip-rule="evenodd" d="M72.1281 101.457C68.9352 99.2567 65.1204 97.92 61.0227 97.92C49.7888 97.92 40.6818 107.967 40.6818 118.32C40.6818 129.091 45.7532 137.419 52.9955 140.952C49.1274 148.536 45.2381 154.04 40.6818 155.04C23.0997 153.256 0 109.428 0 73.44C0 34.0497 31.2517 0 89.5 0C141.854 0 161.704 21.6494 162.727 40.8C140.293 46.9837 101.091 49.3648 44.75 48.96V53.04L93.5682 57.12L101.705 81.6C88.7599 80.6308 79.5097 89.5355 72.1281 101.457Z" fill="#191847"/>
</svg>
