<svg width="209" height="347" viewBox="0 0 209 347" fill="none" xmlns="http://www.w3.org/2000/svg">
<path fill-rule="evenodd" clip-rule="evenodd" d="M102.874 31.8768C98.8469 27.1493 96.121 21.3556 96.5765 14.8637C97.8889 -3.84137 123.927 0.273508 128.992 9.71422C134.057 19.1549 133.455 43.1021 126.909 44.7894C124.299 45.4623 118.737 43.814 113.077 40.4024L116.63 65.5363H95.6528L102.874 31.8768Z" fill="#B28B67"/>
<path fill-rule="evenodd" clip-rule="evenodd" d="M114.126 16.9295C114.929 28.1149 117.053 33.7076 120.498 33.7076C125.666 33.7076 130.051 30.4267 132.318 30.4267C133.971 30.4267 133.602 32.4954 132.507 34.0291C131.603 35.2945 127.2 36.5141 127.2 38.4759C127.2 40.4377 130.678 38.92 130.678 40.0834C130.678 42.008 131.29 45.6265 127.95 45.6265C124.569 45.6265 114.877 44.3946 113.216 39.3774C112.144 36.1395 111.451 29.4299 111.137 19.2487C110.931 19.2243 110.723 19.2118 110.511 19.2118C107.615 19.2118 105.267 21.5597 105.267 24.4561C105.267 25.9264 105.872 27.2554 106.847 28.2077C105.633 29.9205 104.273 31.7097 102.715 33.556C96.8606 30.0436 92.5163 19.7615 98.2399 9.88411C99.8219 5.04533 103.403 2.46076 107.633 1.26066C111.06 -0.172599 114.616 -0.334202 117.619 0.525025C123.505 1.02987 128.76 2.8246 130.25 3.89045C130.25 9.46273 129.17 11.116 119.948 10.9703C117.682 12.167 115.94 14.2278 114.126 16.9295Z" fill="#191847"/>
<path fill-rule="evenodd" clip-rule="evenodd" d="M88.6602 138.083L120.349 249.285L143.469 331.248H160.332L135.764 138.083H88.6602Z" fill="#191847"/>
<path fill-rule="evenodd" clip-rule="evenodd" d="M80.1853 138.083C79.4524 195.398 76.953 226.659 76.1834 231.866C75.4139 237.074 63.7775 270.201 41.2744 331.248H58.7434C87.3916 272.684 103.384 239.556 106.72 231.866C110.056 224.176 120.352 192.915 135.858 138.083H80.1853Z" fill="#2F3676"/>
<path fill-rule="evenodd" clip-rule="evenodd" d="M39.7134 346.98L40.5874 328.625H58.9425C67.6459 334.744 79.0085 339.697 93.0304 343.484V346.98H59.8165L48.4539 345.232V346.98H39.7134Z" fill="#191847"/>
<path fill-rule="evenodd" clip-rule="evenodd" d="M141.103 346.98L141.977 328.625H160.332C169.036 334.744 180.398 339.697 194.42 343.484V346.98H161.206L149.844 345.232V346.98H141.103Z" fill="#191847"/>
<path fill-rule="evenodd" clip-rule="evenodd" d="M162.394 123.757L188.778 146.125C196.18 148.688 202.305 151.661 207.154 155.045C208.273 156.218 209.564 158.525 204.632 157.797C199.701 157.069 194.481 156.525 193.679 158.168C192.876 159.812 195.735 162.044 194.193 164.229C193.165 165.686 189.076 161.567 181.926 151.872L155.183 138.525L162.394 123.757ZM42.9185 114.078L58.3995 116.326C41.7821 152.38 32.8732 171.448 31.6731 173.528C28.9727 178.21 32.1485 186.365 33.39 190.682C27.1158 192.494 29.1196 182.8 21.1861 185.218C13.9449 187.425 7.96929 192.428 0.797485 186.479C-0.0842459 185.748 -0.826996 183.356 1.97555 181.962C8.95771 178.491 19.2091 172.138 20.8027 169.796C22.9758 166.604 30.3477 148.031 42.9185 114.078Z" fill="#B28B67"/>
<path fill-rule="evenodd" clip-rule="evenodd" d="M107.622 50.9676L117.215 47.7953C130.228 80.3015 149.634 111.753 182.058 138.319L174.04 152.152C145.544 135.366 118.569 122.326 107.622 97.1373C103.949 88.6834 107.323 61.076 107.622 50.9676Z" fill="#C5CFD6"/>
<path fill-rule="evenodd" clip-rule="evenodd" d="M74.6753 142.453C102.154 145.366 123.783 145.366 139.561 142.453C141.516 142.092 141.825 138.819 140.918 136.598C126.8 102.006 117.119 71.8224 117.119 47.7957C114.529 49.1016 109.995 49.2973 103.519 48.3828C86.1133 73.1431 78.1125 101.553 74.6753 142.453Z" fill="#323337"/>
<path fill-rule="evenodd" clip-rule="evenodd" d="M99.1916 46.3074H106.445C108.134 56.2408 113.461 190.755 129.907 234.758H40.9239C42.853 194.448 58.0706 146.025 73.4862 105.505C59.855 117.979 47.9744 139.115 37.8442 168.913L21.1768 164.634C33.5696 111.233 59.0492 71.9824 97.6156 46.8834C97.6991 46.6905 97.7822 46.4984 97.865 46.3074H98.5069C98.7431 46.1557 98.9799 46.0046 99.2171 45.854L99.1916 46.3074V46.3074Z" fill="#DDE3E9"/>
</svg>
