<svg width="241" height="366" viewBox="0 0 241 366" fill="none" xmlns="http://www.w3.org/2000/svg">
<path fill-rule="evenodd" clip-rule="evenodd" d="M95.3745 40.03C90.059 36.4013 85.7682 31.3586 84.4918 24.7618C80.8142 5.75453 108.112 2.8383 115.73 10.8875C123.349 18.9366 129.142 42.9799 123.007 46.4273C120.56 47.8021 114.525 47.6576 107.918 45.7814L118.209 69.8881L97.1027 75.5434L95.3745 40.03Z" fill="#B28B67"/>
<path fill-rule="evenodd" clip-rule="evenodd" d="M102.701 22.0908C106.498 33.0288 110.129 38.0334 113.596 37.1046C118.795 35.7113 122.33 31.2574 124.612 30.6461C126.275 30.2004 126.456 32.3628 125.764 34.1877C125.192 35.6933 121.089 38.0965 121.613 40.0528C122.137 42.0091 125.231 39.5579 125.542 40.7182C126.057 42.6374 127.638 46.0811 124.278 46.9816C120.877 47.8929 110.796 49.2774 107.784 44.7219C105.84 41.7819 103.35 35.2778 100.313 25.2094C100.1 25.2404 99.887 25.2841 99.674 25.3412C96.7599 26.122 95.0249 29.0965 95.7989 31.9848C96.1917 33.4511 97.1557 34.6133 98.3909 35.3002C97.6276 37.3354 96.7375 39.4863 95.6629 41.7476C88.834 39.8232 81.7156 30.7407 84.835 19.3476C85.1338 14.0957 88.0466 10.5527 91.9817 8.2156C95.0462 5.86257 98.5817 4.7425 101.832 4.78989C107.889 3.70657 113.657 4.07943 115.44 4.74077C116.929 10.2976 116.284 12.2374 106.967 14.5783C105.007 16.3827 103.805 18.9074 102.701 22.0908Z" fill="#191847"/>
<path fill-rule="evenodd" clip-rule="evenodd" d="M107.378 149.037L152.064 261.702L182.035 356.95H193.87L148.051 149.037L107.378 149.037Z" fill="#997659"/>
<path fill-rule="evenodd" clip-rule="evenodd" d="M98.3798 149.038C97.904 188.629 90.9645 241.932 89.8558 244.4C89.1167 246.045 63.6006 266.967 13.3076 307.167L21.459 315.856C80.8001 281.39 111.844 261.859 114.59 257.262C118.709 250.366 132.119 186.914 142.885 149.038H98.3798Z" fill="#B28B67"/>
<path fill-rule="evenodd" clip-rule="evenodd" d="M12.1635 304.25C9.42618 305.217 7.54053 306.135 6.50656 307.003C5.249 308.058 3.58969 309.808 1.52864 312.252C2.75271 313.711 13.7537 326.825 34.5316 351.592C38.7683 349.779 40.0975 347.657 38.5192 345.229C36.9408 342.8 35.6491 340.766 34.6441 339.127L27.4546 314.002C27.3163 313.518 26.8123 313.238 26.329 313.377C26.3207 313.379 26.3125 313.382 26.3043 313.384L22.4677 314.601C19.8059 313.361 17.9403 312.103 16.8709 310.828C16.002 309.792 15.2202 308.011 14.5257 305.484L14.5257 305.484C14.2591 304.514 13.2571 303.944 12.2875 304.211C12.2457 304.222 12.2044 304.235 12.1635 304.25Z" fill="#E4E4E4"/>
<path fill-rule="evenodd" clip-rule="evenodd" d="M177.189 352.642C176.17 355.361 175.661 357.396 175.661 358.745C175.661 360.387 175.935 362.783 176.482 365.933C178.386 365.933 195.503 365.933 227.832 365.933C229.167 361.521 228.396 359.14 225.521 358.788C222.646 358.436 220.258 358.118 218.356 357.835L194.489 347.195C194.03 346.99 193.492 347.196 193.287 347.656C193.283 347.664 193.28 347.671 193.277 347.679L191.742 351.401C189.081 352.643 186.918 353.264 185.254 353.264C183.902 353.264 182.035 352.718 179.653 351.626L179.653 351.626C178.739 351.206 177.658 351.608 177.239 352.522C177.221 352.561 177.204 352.601 177.189 352.642Z" fill="#E4E4E4"/>
<path fill-rule="evenodd" clip-rule="evenodd" d="M137.423 347.139L193.692 341.056L151.99 149.037H101.591L137.423 347.139Z" fill="#69A1AC"/>
<path fill-rule="evenodd" clip-rule="evenodd" d="M24.9468 293.148L61.8561 336.667C100.732 294.372 123.396 266.774 129.85 253.874C136.304 240.974 142.105 206.028 147.254 149.037H90.515C87.7022 199.175 85.8062 225.411 84.8269 227.744C83.8477 230.078 63.8876 251.879 24.9468 293.148Z" fill="#89C5CC"/>
<path fill-rule="evenodd" clip-rule="evenodd" d="M177.072 128.147L209.357 144.003C217.481 144.718 224.419 146.166 230.17 148.349C231.596 149.247 233.48 151.242 228.312 151.751C223.145 152.26 217.732 153.026 217.334 154.881C216.936 156.735 220.386 158.261 219.376 160.846C218.702 162.57 213.535 159.457 203.874 151.507L173.492 144.814L177.072 128.147ZM67.3885 148.231L86.1382 145.001C81.122 184.204 78.3533 205.024 77.8321 207.46C76.6596 212.942 82.4239 219.96 85.0397 223.816C79.4049 227.617 78.2784 217.419 71.1943 222.35C64.7283 226.851 60.4137 233.702 51.3984 230.141C50.29 229.704 48.7864 227.585 51.1158 225.311C56.9191 219.647 65.0368 210.093 65.864 207.273C66.9922 203.428 67.5003 183.747 67.3885 148.231Z" fill="#B28B67"/>
<path fill-rule="evenodd" clip-rule="evenodd" d="M106.841 60.6081L114.36 57.9177C147.487 77.5729 167.678 122.994 207.376 141.942L200.735 153.906C138.236 157.156 112.857 101.885 106.841 60.6081Z" fill="#E87613"/>
<path fill-rule="evenodd" clip-rule="evenodd" d="M90.1388 163.52C121.226 158.039 144.093 154.006 158.74 151.424C161.874 150.871 160.489 146.471 159.636 144.278C149.781 118.97 124.38 94.2938 117.796 56.955L97.4637 57.3564C85.7153 86.4357 85.7417 119.683 90.1388 163.52Z" fill="#DDE3E9"/>
<path fill-rule="evenodd" clip-rule="evenodd" d="M77.2955 87.4601C74.2767 87.1448 71.6628 85.6289 69.4538 82.9122C59.9316 71.2016 61.2829 63.5913 68.5977 59.8783C75.9125 56.1653 83.6589 59.7908 95.9735 57.6194C96.6434 57.5013 97.2642 57.4349 97.8361 57.4202L104.093 56.6797C132.434 113.484 144.387 152.609 139.951 174.055L85.9572 183.576C84.067 191.563 82.1069 198.348 80.0771 203.931L65.3646 206.526C56.1247 162.22 60.1016 122.532 77.2955 87.4601Z" fill="#FF9B21"/>
<path fill-rule="evenodd" clip-rule="evenodd" d="M92.2869 150.72C96.4779 164.559 101.047 174.333 105.995 180.043L85.9571 183.576C88.162 174.259 90.272 163.307 92.2869 150.72V150.72Z" fill="black" fill-opacity="0.1"/>
</svg>
