<svg width="238" height="368" viewBox="0 0 238 368" fill="none" xmlns="http://www.w3.org/2000/svg">
<path fill-rule="evenodd" clip-rule="evenodd" d="M116.135 34.8352C111.925 29.8933 109.075 23.8369 109.552 17.0506C110.923 -2.50275 138.142 1.79873 143.437 11.6676C148.732 21.5364 148.103 46.5696 141.26 48.3334C138.531 49.0368 132.717 47.3137 126.801 43.7475L130.514 70.0212H108.586L116.135 34.8352Z" fill="#B28B67"/>
<path fill-rule="evenodd" clip-rule="evenodd" d="M133.766 13.0989C130.791 14.7634 128.673 17.8825 126.124 21.9739C125.503 21.7298 124.827 21.5958 124.119 21.5958C121.091 21.5958 118.637 24.0502 118.637 27.0779C118.637 28.6149 119.269 30.0042 120.288 30.9997C119.02 32.7901 117.598 34.6605 115.969 36.5905C109.89 32.9433 105.369 22.3134 111.173 12.0516C116.167 -8.50341 144.465 4.25489 149.91 0.788194C151.1 8.24727 147.261 14.2617 133.766 13.0989Z" fill="#191847"/>
<path fill-rule="evenodd" clip-rule="evenodd" d="M107.703 149.343L152.548 262.847L182.626 358.806H194.503L148.521 149.343L107.703 149.343Z" fill="#997659"/>
<path fill-rule="evenodd" clip-rule="evenodd" d="M98.673 149.343C98.1955 189.229 91.2312 242.929 90.1185 245.416C89.3768 247.073 63.7697 268.152 13.2974 308.651L21.4778 317.405C81.0305 282.682 112.185 263.005 114.941 258.373C119.074 251.427 132.532 187.501 143.337 149.343H98.673Z" fill="#B28B67"/>
<path fill-rule="evenodd" clip-rule="evenodd" d="M12.2037 305.729C9.45657 306.7 7.5642 307.621 6.52653 308.492C5.26448 309.552 3.59926 311.308 1.53085 313.76C2.75929 315.225 13.7995 328.385 34.6516 353.241C38.9034 351.421 40.2374 349.292 38.6534 346.855C37.0694 344.417 35.7731 342.376 34.7645 340.731L27.5494 315.516C27.4105 315.031 26.9047 314.75 26.4197 314.889C26.4114 314.892 26.4031 314.894 26.3949 314.897L22.5446 316.118C19.8734 314.873 18.0011 313.611 16.9278 312.331C16.0558 311.292 15.2713 309.504 14.5743 306.968L14.5743 306.968C14.3068 305.995 13.3011 305.423 12.3281 305.69C12.2862 305.702 12.2447 305.715 12.2037 305.729Z" fill="#E4E4E4"/>
<path fill-rule="evenodd" clip-rule="evenodd" d="M177.763 354.376C176.741 357.104 176.23 359.146 176.23 360.501C176.23 362.148 176.504 364.553 177.053 367.714C178.965 367.714 196.143 367.714 228.587 367.714C229.926 363.286 229.153 360.896 226.268 360.543C223.383 360.19 220.986 359.872 219.077 359.587L195.125 348.909C194.664 348.704 194.124 348.911 193.918 349.371C193.915 349.379 193.912 349.387 193.908 349.395L192.369 353.13C189.698 354.376 187.527 354.999 185.857 354.999C184.5 354.999 182.627 354.451 180.236 353.356L180.236 353.356C179.319 352.935 178.234 353.338 177.813 354.255C177.795 354.295 177.779 354.335 177.763 354.376Z" fill="#E4E4E4"/>
<path fill-rule="evenodd" clip-rule="evenodd" d="M137.855 348.922L194.325 342.793L152.474 149.343H101.896L137.855 348.922Z" fill="#69A1AC"/>
<path fill-rule="evenodd" clip-rule="evenodd" d="M24.978 294.528L62.0189 338.372C101.033 295.761 123.779 267.957 130.255 254.961C136.732 241.965 142.554 206.759 147.722 149.343H90.7801C87.9573 199.855 86.0545 226.286 85.0718 228.637C84.089 230.987 64.0578 252.951 24.978 294.528Z" fill="#89C5CC"/>
<path fill-rule="evenodd" clip-rule="evenodd" d="M190.141 138.298L216.993 164.325C224.806 167.636 231.208 171.292 236.198 175.294C237.32 176.639 238.542 179.216 233.262 178.062C227.982 176.909 222.376 175.932 221.383 177.638C220.391 179.344 223.315 181.959 221.481 184.191C220.258 185.68 216.146 180.945 209.145 169.987L181.222 153.631L190.141 138.298ZM58.8333 114.743L79.59 114.821C63.7811 165.71 55.3892 192.354 54.4143 194.755C52.2209 200.155 56.8625 208.381 58.8474 212.801C52.3826 215.675 53.0714 205.031 44.9163 208.801C37.4726 212.241 31.8103 218.476 23.2102 213.203C22.1529 212.555 20.9943 210.115 23.7937 208.207C30.7682 203.456 40.8188 195.14 42.1768 192.403C44.0287 188.67 49.5809 162.783 58.8333 114.743Z" fill="#B28B67"/>
<path fill-rule="evenodd" clip-rule="evenodd" d="M122.083 56.2407L130.279 54.8439C143.191 100.193 209.534 131.105 213.607 148.058C215.101 154.275 210.597 157.418 212.923 159.312L202.269 167.061C200.465 164.969 196.615 168.795 188.575 166.119C180.535 163.443 122.083 109.938 122.083 56.2407Z" fill="#DB2721"/>
<path fill-rule="evenodd" clip-rule="evenodd" d="M135.871 62.2696C134.926 122.309 169.858 137.624 162.077 161.709C155.652 181.599 94.1503 202.979 83.5078 183.483C79.1999 175.591 77.2453 166.047 77.0236 155.67C74.3036 163.642 72.1524 170.505 70.5699 176.259C67.84 186.186 57.2567 187.764 57.2567 191.588L43.3133 187.764C44.2591 182.569 37.6858 180.039 39.4483 168.432C47.3451 116.429 68.5625 78.7328 103.1 55.3448L103.466 50.1556C103.611 48.1436 105.356 46.6266 107.368 46.7632L133.172 48.5559C135.186 48.6926 136.705 50.4383 136.565 52.4519C136.565 52.453 136.565 52.4541 136.562 52.455L135.871 62.2696Z" fill="#FF4133"/>
</svg>
