<svg width="195" height="302" viewBox="0 0 195 302" fill="none" xmlns="http://www.w3.org/2000/svg">
<path fill-rule="evenodd" clip-rule="evenodd" d="M97.5718 27.7389C94.0671 23.6251 91.695 18.5835 92.0914 12.9343C93.2334 -3.34267 115.892 0.238057 120.299 8.45328C124.707 16.6685 124.183 37.5071 118.487 38.9754C116.215 39.5609 111.376 38.1266 106.45 35.1579L109.542 57.0292H91.2876L97.5718 27.7389Z" fill="#57331F"/>
<path fill-rule="evenodd" clip-rule="evenodd" d="M107.363 14.7319C108.062 24.4653 109.911 29.332 112.908 29.332C117.406 29.332 121.221 26.477 123.195 26.477C124.633 26.477 124.312 28.2771 123.358 29.6117C122.572 30.7128 118.741 31.7742 118.741 33.4813C118.741 35.1884 121.768 33.8677 121.768 34.8801C121.768 36.5549 122.299 39.7036 119.393 39.7036C116.451 39.7036 108.017 38.6316 106.572 34.2658C105.639 31.4482 105.036 25.6096 104.762 16.75C104.584 16.7288 104.402 16.7178 104.218 16.7178C101.698 16.7178 99.6546 18.761 99.6546 21.2814C99.6546 22.5609 100.181 23.7174 101.029 24.546C99.9735 26.0364 98.79 27.5934 97.434 29.2C92.3396 26.1436 88.5592 17.1962 93.5398 8.60104C94.9165 4.39039 98.0331 2.14133 101.714 1.09701C104.695 -0.150194 107.791 -0.290818 110.403 0.456871C115.525 0.896181 120.099 2.45794 121.395 3.38543C121.395 8.23436 120.455 9.67302 112.43 9.54621C110.458 10.5876 108.942 12.3809 107.363 14.7319Z" fill="#191847"/>
<path fill-rule="evenodd" clip-rule="evenodd" d="M89.8237 119.97L127.155 214.456L152.193 294.336H162.08L123.802 119.97L89.8237 119.97Z" fill="#3D2216"/>
<path fill-rule="evenodd" clip-rule="evenodd" d="M82.3064 119.97C81.9089 153.173 76.1116 197.875 75.1854 199.945C74.5679 201.325 53.2515 218.872 11.2363 252.585L18.0461 259.872C67.6201 230.967 93.5541 214.587 95.8482 210.732C99.2893 204.949 110.492 151.735 119.487 119.97H82.3064Z" fill="#57331F"/>
<path fill-rule="evenodd" clip-rule="evenodd" d="M10.326 250.153C8.03925 250.961 6.46396 251.728 5.60017 252.453C4.54959 253.335 3.16339 254.796 1.44156 256.838C2.46417 258.057 11.6545 269.012 29.0126 289.703C32.552 288.188 33.6624 286.416 32.3438 284.387C31.0253 282.358 29.9462 280.659 29.1065 279.29L23.1004 258.3C22.9848 257.896 22.5638 257.662 22.16 257.778C22.1531 257.78 22.1462 257.782 22.1394 257.784L18.9343 258.801C16.7106 257.764 15.1521 256.714 14.2586 255.649C13.5327 254.783 12.8797 253.295 12.2994 251.184L12.2994 251.184C12.0768 250.374 11.2396 249.898 10.4296 250.12C10.3947 250.13 10.3602 250.141 10.326 250.153Z" fill="#E4E4E4"/>
<path fill-rule="evenodd" clip-rule="evenodd" d="M148.145 290.648C147.294 292.919 146.868 294.619 146.868 295.747C146.868 297.118 147.097 299.12 147.554 301.751C149.145 301.751 163.444 301.751 190.452 301.751C191.567 298.066 190.924 296.076 188.522 295.782C186.12 295.488 184.125 295.223 182.536 294.986L162.597 286.097C162.213 285.926 161.764 286.099 161.593 286.482C161.59 286.489 161.587 286.496 161.584 286.502L160.303 289.611C158.079 290.649 156.272 291.167 154.882 291.167C153.753 291.167 152.193 290.711 150.203 289.799L150.203 289.799C149.439 289.449 148.536 289.784 148.186 290.548C148.171 290.581 148.157 290.614 148.145 290.648Z" fill="#E4E4E4"/>
<path fill-rule="evenodd" clip-rule="evenodd" d="M114.923 286.108L161.931 281.006L127.093 119.97H84.9897L114.923 286.108Z" fill="#69A1AC"/>
<path fill-rule="evenodd" clip-rule="evenodd" d="M20.96 240.828L51.7943 277.325C84.2714 241.855 103.206 218.71 108.597 207.891C113.988 197.073 118.835 167.766 123.137 119.97H75.7362C73.3864 162.019 71.8024 184.021 70.9844 185.978C70.1663 187.934 53.4915 206.218 20.96 240.828Z" fill="#89C5CC"/>
<path fill-rule="evenodd" clip-rule="evenodd" d="M156.356 110.538L177.902 131.557C184.171 134.231 189.307 137.184 193.311 140.415C194.212 141.501 195.192 143.582 190.955 142.651C186.719 141.72 182.221 140.931 181.424 142.309C180.628 143.686 182.974 145.798 181.503 147.601C180.522 148.803 177.222 144.979 171.604 136.13L149.199 122.92L156.356 110.538ZM50.9962 91.5151L67.6511 91.5776C54.9662 132.675 48.2326 154.193 47.4504 156.132C45.6905 160.493 49.4148 167.136 51.0075 170.706C45.8202 173.027 46.3729 164.431 39.8293 167.475C33.8566 170.254 29.3132 175.289 22.4127 171.031C21.5643 170.507 20.6346 168.536 22.8808 166.996C28.4771 163.159 36.5416 156.443 37.6312 154.232C39.1172 151.218 43.5721 130.312 50.9962 91.5151Z" fill="#57331F"/>
<path fill-rule="evenodd" clip-rule="evenodd" d="M101.747 44.269L108.324 43.141C118.684 79.7648 171.917 104.729 175.185 118.42C176.383 123.441 172.77 125.979 174.636 127.508L166.087 133.766C164.64 132.077 161.551 135.167 155.099 133.005C148.648 130.844 101.747 87.6347 101.747 44.269Z" fill="#191847"/>
<path fill-rule="evenodd" clip-rule="evenodd" d="M112.81 49.1381C112.052 97.6253 140.081 109.994 133.838 129.445C128.682 145.507 79.3341 162.774 70.7947 147.029C67.338 140.656 65.7698 132.948 65.5918 124.567C63.4093 131.006 61.6832 136.548 60.4135 141.195C58.223 149.212 49.7311 150.486 49.7311 153.574L38.5431 150.486C39.302 146.291 34.0277 144.248 35.4419 134.874C41.7782 92.8765 58.8028 62.4336 86.5156 43.5457L86.8023 39.4456C86.9195 37.7695 88.3733 36.5057 90.0495 36.6229L110.535 38.0554C112.212 38.1726 113.475 39.6264 113.358 41.3026L112.81 49.1381Z" fill="#2F3676"/>
</svg>
